<?xml version="1.0" standalone="no"?>
<!DOCTYPE svg PUBLIC "-//W3C//DTD SVG 20010904//EN"
 "http://www.w3.org/TR/2001/REC-SVG-20010904/DTD/svg10.dtd">
<svg version="1.0" xmlns="http://www.w3.org/2000/svg"
 width="1670.000000pt" height="1670.000000pt" viewBox="0 0 1670.000000 1670.000000"
 preserveAspectRatio="xMidYMid meet">
<metadata>
Created by potrace 1.14, written by Peter Selinger 2001-2017
</metadata>
<g transform="translate(0.000000,1670.000000) scale(0.100000,-0.100000)"
fill="#000000" stroke="none">
<path d="M10888 13920 c-360 -27 -588 -85 -853 -218 -155 -77 -256 -140 -663
-410 -560 -373 -855 -551 -1182 -716 -647 -327 -1107 -443 -2501 -631 -608
-82 -836 -129 -1189 -245 -247 -81 -384 -137 -625 -255 -491 -241 -897 -528
-1023 -724 -67 -102 -111 -248 -112 -369 0 -37 -3 -43 -17 -38 -104 31 -207
33 -296 6 -100 -31 -144 -80 -224 -248 -237 -499 -333 -839 -333 -1180 0 -162
12 -259 56 -447 55 -236 61 -310 41 -462 -9 -70 -35 -209 -56 -308 -54 -251
-68 -342 -85 -565 -52 -664 -14 -1063 136 -1448 248 -634 732 -1184 1528
-1739 963 -670 2060 -990 3855 -1125 263 -20 1114 -17 1385 5 422 34 923 105
1221 172 846 191 1321 605 1510 1314 36 135 74 216 135 295 86 110 128 132
854 461 829 376 850 387 1030 507 184 123 309 228 485 410 260 267 437 522
604 868 239 498 335 1020 281 1540 -25 233 -18 713 21 1575 27 604 24 725 -27
955 -269 1216 -941 2104 -1969 2605 -440 214 -887 346 -1350 400 -162 19 -483
26 -637 15z m797 -770 c201 -30 348 -65 530 -125 442 -145 767 -352 1116 -711
442 -456 686 -968 766 -1614 17 -133 18 -256 18 -1495 0 -1442 0 -1427 -51
-1682 -115 -576 -458 -1051 -1006 -1392 -243 -152 -534 -285 -1218 -558 -256
-101 -513 -210 -572 -240 -192 -100 -325 -225 -407 -383 -52 -100 -67 -146
-101 -320 -45 -229 -107 -378 -221 -530 -245 -329 -663 -509 -1449 -624 -417
-61 -758 -81 -1265 -73 -1545 24 -2752 307 -3672 859 -512 307 -1001 756
-1284 1177 -361 536 -448 1190 -254 1906 90 331 106 398 125 510 54 308 34
562 -66 857 -89 262 -51 503 132 845 30 56 58 104 63 107 4 3 50 -4 102 -14
200 -42 352 -18 438 69 83 82 122 198 136 401 7 107 27 189 58 240 106 175
524 453 907 603 335 131 626 197 1210 272 151 20 379 49 505 66 888 115 1292
221 1850 486 692 328 1366 694 1830 993 359 232 688 348 1110 390 149 15 510
4 670 -20z"/>
<path d="M10862 11310 c-222 -31 -403 -144 -602 -375 -104 -122 -173 -218
-309 -432 -57 -90 -105 -163 -107 -163 -3 0 -44 20 -92 44 -182 91 -337 129
-522 129 -321 -1 -602 -135 -890 -423 -166 -166 -271 -310 -447 -608 -6 -10
-18 -1 -43 35 -161 226 -381 339 -682 351 -359 14 -789 -93 -1183 -293 -257
-130 -420 -243 -594 -410 -190 -183 -333 -379 -451 -620 -357 -724 -255 -1476
283 -2101 211 -245 443 -427 718 -563 664 -329 1394 -268 2059 174 219 145
390 284 850 694 167 149 307 271 311 271 4 0 17 -26 30 -57 170 -430 465 -709
870 -826 206 -60 492 -80 614 -43 187 56 277 171 276 352 0 169 -74 273 -229
321 -26 8 -115 19 -199 24 -202 12 -277 28 -398 88 -227 112 -352 289 -406
572 -34 182 -17 217 162 339 603 414 1082 956 1487 1685 140 252 226 469 274
686 19 91 22 133 23 334 0 214 -2 235 -23 305 -41 131 -87 206 -186 306 -65
64 -111 101 -161 126 -129 67 -295 97 -433 78z m91 -779 c31 -70 35 -227 8
-357 -72 -348 -325 -832 -621 -1187 -73 -87 -260 -281 -265 -275 -3 4 23 341
40 523 19 195 45 327 92 465 119 352 328 639 596 818 60 40 113 69 119 66 6
-4 20 -27 31 -53z m-1643 -754 c60 -29 123 -94 145 -150 28 -73 17 -180 -38
-372 -54 -188 -113 -421 -197 -778 -33 -142 -67 -275 -76 -295 -48 -116 -165
-153 -365 -118 -193 35 -315 141 -374 327 -131 414 76 942 503 1281 165 131
283 162 402 105z m-2210 -650 c30 -9 67 -20 83 -26 l27 -11 -54 -85 c-310
-480 -699 -875 -1171 -1190 -248 -166 -544 -329 -562 -311 -4 4 -8 94 -7 199
1 173 3 202 26 288 65 244 170 426 356 621 156 163 326 290 517 386 147 73
257 108 465 146 50 9 266 -3 320 -17z m620 -860 c72 -185 106 -261 153 -342
103 -178 198 -262 527 -460 116 -70 210 -131 210 -135 0 -14 -199 -227 -326
-350 -427 -410 -844 -624 -1329 -681 -130 -15 -326 -6 -433 20 -221 55 -459
193 -656 382 l-69 65 928 822 c511 451 932 819 936 816 4 -2 31 -64 59 -137z"/>
</g>
</svg>
